<?xml version="1.0" encoding="UTF-8" standalone="no"?>
<!DOCTYPE svg PUBLIC "-//W3C//DTD SVG 1.1//EN" "http://www.w3.org/Graphics/SVG/1.1/DTD/svg11.dtd">
<!-- Created with Vectornator (http://vectornator.io/) -->
<svg height="100%" stroke-miterlimit="10" style="fill-rule:nonzero;clip-rule:evenodd;stroke-linecap:round;stroke-linejoin:round;" version="1.1" viewBox="0 0 185 30" width="100%" xml:space="preserve" xmlns="http://www.w3.org/2000/svg" xmlns:vectornator="http://vectornator.io" xmlns:xlink="http://www.w3.org/1999/xlink">
<defs>
<clipPath id="TextBounds">
<rect height="37.9039" width="190.453" x="-2.6854" y="-4.44144"/>
</clipPath>
</defs>
<g id="Layer-1" vectornator:layerName="Layer 1">
<g fill="#000000" opacity="1" stroke="none">
<path clip-path="url(#TextBounds)" d="M22.3913 9.13932L10.4802 9.13932L10.4802 13.0466L21.8233 13.0466C23.6019 13.0466 24.8039 13.3507 25.4293 13.9589C26.0547 14.567 26.3674 15.6973 26.3674 17.3497L26.3674 19.8456C26.3674 21.498 26.0547 22.6283 25.4293 23.2365C24.8039 23.8446 23.6019 24.1487 21.8233 24.1487L10.5834 24.1487C8.8048 24.1487 7.60278 23.8446 6.97739 23.2365C6.352 22.6283 6.0393 21.498 6.0393 19.8456L6.0393 19.3464L9.77444 18.5718L9.77444 20.7234L22.6323 20.7234L22.6323 16.5752L11.2892 16.5752C9.52199 16.5752 8.32858 16.2711 7.70893 15.6629C7.08927 15.0547 6.77945 13.9244 6.77945 12.272L6.77945 10.2581C6.77945 8.60573 7.08927 7.47543 7.70893 6.86725C8.32858 6.25908 9.52199 5.95499 11.2892 5.95499L21.6167 5.95499C23.3265 5.95499 24.5056 6.2476 25.1539 6.83283C25.8023 7.41806 26.1264 8.45655 26.1264 9.94831L26.1264 10.327L22.3913 11.2048L22.3913 9.13932Z"/>
<path clip-path="url(#TextBounds)" d="M43.6145 9.20817L43.6145 24.1487L39.3802 24.1487L39.3802 9.20817L31.032 9.20817L31.032 5.95499L51.997 5.95499L51.997 9.20817L43.6145 9.20817Z"/>
<path clip-path="url(#TextBounds)" d="M70.862 9.1049L61.3435 9.1049L61.3435 14.1654L70.862 14.1654C71.5964 14.1654 72.0985 14.0593 72.3681 13.847C72.6378 13.6347 72.7726 13.2589 72.7726 12.7195L72.7726 10.5335C72.7726 10.0057 72.6378 9.63562 72.3681 9.42333C72.0985 9.21104 71.5964 9.1049 70.862 9.1049ZM57.178 24.1487L57.178 5.95499L72.7382 5.95499C74.1841 5.95499 75.2312 6.23326 75.8795 6.7898C76.5279 7.34634 76.852 8.24426 76.852 9.48357L76.852 13.7523C76.852 14.9801 76.5279 15.8752 75.8795 16.4375C75.2312 16.9998 74.1841 17.2809 72.7382 17.2809L70.3629 17.2809L78.7626 24.1487L72.6866 24.1487L65.354 17.2809L61.3435 17.2809L61.3435 24.1487L57.178 24.1487Z"/>
<path clip-path="url(#TextBounds)" d="M88.8492 16.885L96.8187 16.885L92.8942 9.48357L88.8492 16.885ZM80.7077 24.1487L91.0008 5.95499L95.0802 5.95499L105.511 24.1487L100.76 24.1487L98.5744 20.1726L87.0419 20.1726L84.9247 24.1487L80.7077 24.1487Z"/>
<path clip-path="url(#TextBounds)" d="M117.439 9.20817L117.439 24.1487L113.205 24.1487L113.205 9.20817L104.857 9.20817L104.857 5.95499L125.822 5.95499L125.822 9.20817L117.439 9.20817Z"/>
<path clip-path="url(#TextBounds)" d="M131.003 24.1487L131.003 5.95499L149.627 5.95499L149.627 9.05326L135.237 9.05326L135.237 13.1154L143.637 13.1154L143.637 16.2137L135.237 16.2137L135.237 20.7234L149.799 20.7234L149.799 24.1487L131.003 24.1487Z"/>
<path clip-path="url(#TextBounds)" d="M174.689 9.20817L161.469 9.20817L161.469 20.7234L174.689 20.7234L174.689 16.6784L167.769 16.6784L167.769 13.5802L178.802 13.5802L178.802 19.8456C178.802 21.5095 178.493 22.6426 177.873 23.2451C177.253 23.8475 176.06 24.1487 174.293 24.1487L161.745 24.1487C159.978 24.1487 158.784 23.8475 158.164 23.2451C157.545 22.6426 157.235 21.5095 157.235 19.8456L157.235 10.2581C157.235 8.60573 157.545 7.47543 158.164 6.86725C158.784 6.25908 159.978 5.95499 161.745 5.95499L174.293 5.95499C176.037 5.95499 177.225 6.25334 177.856 6.85004C178.487 7.44675 178.802 8.5254 178.802 10.086L178.802 10.4991L174.689 11.2393L174.689 9.20817Z"/>
</g>
</g>
</svg>
